<svg width="30" height="38" viewBox="0 0 30 38" fill="none" xmlns="http://www.w3.org/2000/svg">
<path d="M28.2782 9.97835V27.6231C28.2782 34.681 26.5856 36.4452 19.8138 36.4452H9.65628C2.88456 36.4452 1.19189 34.6804 1.19189 27.6231V9.97835C1.19189 2.92045 2.88456 1.15625 9.65628 1.15625H19.8138C26.5856 1.15625 28.2782 2.92045 28.2782 9.97835Z" stroke="white" stroke-width="1.5" stroke-linecap="round" stroke-linejoin="round"/>
<path d="M18.1213 7.33203H11.3496" stroke="white" stroke-width="1.5" stroke-linecap="round" stroke-linejoin="round"/>
<path d="M17.3589 28.5941C17.3589 29.1349 17.205 29.6636 16.9168 30.1133C16.6285 30.563 16.2187 30.9135 15.7393 31.1205C15.2599 31.3275 14.7324 31.3817 14.2234 31.2762C13.7145 31.1707 13.247 30.9103 12.88 30.528C12.513 30.1456 12.2631 29.6583 12.1618 29.1279C12.0605 28.5975 12.1124 28.0476 12.3109 27.5479C12.5094 27.0482 12.8456 26.6211 13.277 26.3205C13.7085 26.02 14.2157 25.8595 14.7346 25.8594C15.0792 25.8593 15.4204 25.93 15.7388 26.0674C16.0572 26.2048 16.3465 26.4062 16.5902 26.6602C16.8339 26.9141 17.0272 27.2156 17.1591 27.5474C17.291 27.8792 17.3589 28.2349 17.3589 28.5941Z" stroke="white" stroke-width="1.5" stroke-linecap="round" stroke-linejoin="round"/>
</svg>
