<svg width="90" height="85" viewBox="0 0 90 85" fill="none" xmlns="http://www.w3.org/2000/svg">
<path d="M56.25 69.0982L54.218 67.8205C53.7455 67.5223 53.1309 67.5223 52.6584 67.8205L49.2188 69.981L45.7805 67.8205C45.308 67.5223 44.6934 67.5223 44.2209 67.8205L40.7812 69.981L37.343 67.8205C36.8705 67.5223 36.2559 67.5223 35.7834 67.8205L33.75 69.0982V39.7637H30.9375V71.5742C30.9375 71.9307 31.0922 72.2647 31.3523 72.5086L31.3495 72.5112L44.0058 84.4402C44.28 84.6986 44.64 84.8285 45 84.8285C45.36 84.8285 45.72 84.6986 45.9942 84.4402L58.6505 72.5112L58.6477 72.5086C58.9078 72.2647 59.0625 71.9307 59.0625 71.5742V46.3909H56.25V69.0982ZM36.5625 70.5165L40.0008 72.6769C40.4733 72.9751 41.0878 72.9751 41.5603 72.6769L45 70.5165L48.4383 72.6769C48.9108 72.9751 49.5253 72.9751 49.9978 72.6769L53.4375 70.5165L55.4484 71.7796L50.0428 76.8759H39.9572L34.5516 71.7809L36.5625 70.5165ZM45 81.6289L42.7697 79.5268H47.2303L45 81.6289Z" fill="black"/>
<path d="M26.8494 28.2137C26.6835 27.7339 26.2433 27.384 25.7132 27.3111L21.6379 26.7517L19.8139 23.2698C19.3414 22.3632 17.765 22.3632 17.2925 23.2698L15.4686 26.753L11.3933 27.3124C10.8632 27.3853 10.4244 27.7339 10.2571 28.215C10.0925 28.6935 10.229 29.221 10.6129 29.5723L13.5632 32.2828L12.8671 36.1106C12.7771 36.6077 12.9936 37.11 13.4254 37.4069C13.8613 37.7065 14.435 37.7436 14.9075 37.5076L18.5539 35.7011L22.2004 37.5076C22.4057 37.6097 22.6321 37.6601 22.8557 37.6601C23.1468 37.6601 23.4364 37.5752 23.6825 37.4069C24.1157 37.11 24.3322 36.6077 24.2408 36.1106L23.5447 32.2828L26.495 29.5723C26.8761 29.2197 27.014 28.6922 26.8494 28.2137ZM21.0514 30.8699C20.721 31.1734 20.5691 31.6134 20.6479 32.0429L20.9868 33.9104L19.2079 33.029C19.0025 32.9269 18.7775 32.8766 18.5525 32.8766C18.3275 32.8766 18.104 32.9269 17.8972 33.029L16.1183 33.9104L16.4572 32.0429C16.536 31.6134 16.3841 31.1747 16.0536 30.8699L14.615 29.5484L16.6035 29.2754C17.0619 29.2131 17.4571 28.9413 17.6624 28.5503L18.5525 26.8525L19.4427 28.5503C19.648 28.9413 20.0432 29.2131 20.5016 29.2754L22.49 29.5484L21.0514 30.8699Z" fill="black"/>
<path d="M25.4069 11.4434L24.5364 16.2296C24.4464 16.7266 24.663 17.2289 25.0947 17.5272C25.5306 17.8241 26.103 17.8625 26.5769 17.6266L31.1359 15.3667L35.695 17.6266C35.9003 17.7286 36.1267 17.779 36.3503 17.779C36.6414 17.779 36.9311 17.6942 37.1772 17.5272C37.6103 17.2289 37.8269 16.7266 37.7355 16.2296L36.865 11.4434L40.555 8.05293C40.9375 7.70037 41.0753 7.17417 40.9108 6.69568C40.7448 6.21588 40.3047 5.86596 39.7745 5.79306L34.6783 5.09456L32.3973 0.740496C31.9248 -0.166103 30.3484 -0.166103 29.8759 0.740496L27.5964 5.09456L22.4973 5.79306C21.9672 5.86596 21.5284 6.21455 21.3611 6.69568C21.1965 7.17417 21.333 7.70169 21.7169 8.05293L25.4069 11.4434ZM28.7326 7.61686C29.1911 7.55457 29.5862 7.28285 29.7915 6.89185L31.1373 4.32183L32.4845 6.89185C32.6898 7.28285 33.085 7.55457 33.5434 7.61686L36.5528 8.0304L34.3745 10.0318C34.044 10.3353 33.8922 10.7754 33.9709 11.2048L34.4842 14.032L31.7926 12.6973C31.5873 12.5952 31.3623 12.5448 31.1373 12.5448C30.9123 12.5448 30.6887 12.5952 30.482 12.6973L27.7905 14.032L28.3037 11.2048C28.3825 10.7754 28.2306 10.3367 27.9001 10.0318L25.7219 8.0304L28.7326 7.61686Z" fill="black"/>
<path d="M64.2883 19.9646L70.0876 14.6364C70.4701 14.2838 70.608 13.7576 70.4434 13.2791C70.2775 12.7993 69.8373 12.4494 69.3072 12.3765L61.2944 11.279L57.7098 4.43581C57.2373 3.52921 55.6609 3.52921 55.1884 4.43581L51.6039 11.279L43.5911 12.3778C43.0609 12.4507 42.6222 12.7993 42.4548 13.2804C42.2903 13.7589 42.4267 14.2865 42.8106 14.6377L48.61 19.966L47.2403 27.4891C47.1503 27.9862 47.3669 28.4885 47.7986 28.7854C48.2345 29.0836 48.8083 29.1221 49.2808 28.8861L56.4484 25.334L63.6161 28.8861C63.8214 28.9882 64.0478 29.0386 64.2714 29.0386C64.5625 29.0386 64.8522 28.9537 65.0983 28.7854C65.5314 28.4885 65.748 27.9862 65.6565 27.4891L64.2883 19.9646ZM61.795 18.553C61.4645 18.8566 61.3126 19.2966 61.3914 19.726L62.4039 25.2889L57.1037 22.6632C56.8984 22.5612 56.6734 22.5108 56.4484 22.5108C56.2234 22.5108 55.9998 22.5612 55.7931 22.6632L50.493 25.2889L51.5055 19.726C51.5842 19.2966 51.4323 18.8579 51.1019 18.553L46.8142 14.6138L52.7387 13.8013C53.1972 13.739 53.5923 13.4673 53.7976 13.0763L56.4484 8.01714L59.0992 13.0763C59.3045 13.4673 59.6997 13.739 60.1581 13.8013L66.0826 14.6138L61.795 18.553Z" fill="black"/>
<path d="M80.3406 34.7585L76.7758 34.2707L75.1797 31.2249C74.7072 30.3183 73.1308 30.3183 72.6583 31.2249L71.0636 34.2707L67.4973 34.7585C66.9672 34.8314 66.5284 35.18 66.3611 35.6598C66.1965 36.1396 66.333 36.6671 66.7169 37.0184L69.2987 39.3896L68.6884 42.7376C68.5984 43.2347 68.815 43.737 69.2467 44.0339C69.4928 44.2022 69.7825 44.2871 70.0736 44.2871C70.2972 44.2871 70.5222 44.2367 70.7289 44.1346L73.9183 42.5547L77.1076 44.1346C77.5816 44.3706 78.1553 44.3308 78.5898 44.0352C79.023 43.737 79.2395 43.2347 79.1481 42.7376L78.5392 39.3896L81.1197 37.0184C81.5022 36.6658 81.64 36.1396 81.4755 35.6598C81.3095 35.18 80.8708 34.8301 80.3406 34.7585ZM76.0473 37.978C75.7169 38.2815 75.565 38.7215 75.6437 39.151L75.8955 40.5387L74.575 39.884C74.3697 39.7819 74.1447 39.7315 73.9197 39.7315C73.6947 39.7315 73.4711 39.7819 73.2644 39.884L71.9439 40.5387L72.197 39.151C72.2758 38.7215 72.1239 38.2828 71.7934 37.978L70.7233 36.9945L72.2012 36.793C72.6597 36.7307 73.0548 36.459 73.2601 36.068L73.9211 34.8062L74.5834 36.068C74.7887 36.4603 75.1839 36.7307 75.6423 36.793L77.1203 36.9945L76.0473 37.978Z" fill="black"/>
<path d="M40.7812 49.0412H43.5938C43.5938 39.5405 36.0239 31.8105 26.7188 31.8105V34.4614C34.4728 34.4614 40.7812 41.0025 40.7812 49.0412Z" fill="black"/>
<path d="M49.2188 55.6687H52.0312C52.0312 46.3283 56.5397 38.438 61.875 38.438V35.7871C54.7777 35.7871 49.2188 44.5204 49.2188 55.6687Z" fill="black"/>
<path d="M37.9688 33.1362H40.7812C40.7812 30.2123 42.6741 27.8345 45 27.8345V25.1836C41.123 25.1836 37.9688 28.7503 37.9688 33.1362Z" fill="black"/>
<path d="M28.125 21.2075C30.4509 21.2075 32.3438 23.5853 32.3438 26.5093H35.1562C35.1562 22.1234 32.002 18.5566 28.125 18.5566V21.2075Z" fill="black"/>
<path d="M57.6562 31.811V29.1602C50.677 29.1602 45 35.1061 45 42.4145H47.8125C47.8125 36.568 52.2295 31.811 57.6562 31.811Z" fill="black"/>
<path d="M52.0312 58.3184H49.2188V60.9692H52.0312V58.3184Z" fill="black"/>
<path d="M47.8125 45.0645H45V47.7153H47.8125V45.0645Z" fill="black"/>
<path d="M43.5938 51.6914H40.7812V54.3423H43.5938V51.6914Z" fill="black"/>
<path d="M43.5938 56.9941H40.7812V59.645H43.5938V56.9941Z" fill="black"/>
<path d="M43.5938 62.2949H40.7812V64.9458H43.5938V62.2949Z" fill="black"/>
<path d="M19.6875 39.7637H16.875V42.4145H19.6875V39.7637Z" fill="black"/>
<path d="M2.8125 21.207H0V23.8579H2.8125V21.207Z" fill="black"/>
<path d="M14.0625 15.9043H11.25V18.5552H14.0625V15.9043Z" fill="black"/>
<path d="M71.7188 22.5332H68.9062V25.1841H71.7188V22.5332Z" fill="black"/>
<path d="M87.1875 13.2539H84.375V15.9048H87.1875V13.2539Z" fill="black"/>
<path d="M8.4375 6.62695H5.625V9.27783H8.4375V6.62695Z" fill="black"/>
<path d="M18.2812 5.30078H15.4688V7.95166H18.2812V5.30078Z" fill="black"/>
<path d="M70.3125 3.97656H67.5V6.62744H70.3125V3.97656Z" fill="black"/>
<path d="M78.75 14.5801H75.9375V17.231H78.75V14.5801Z" fill="black"/>
<path d="M5.625 31.8105H2.8125V34.4614H0V37.1123H2.8125V39.7632H5.625V37.1123H8.4375V34.4614H5.625V31.8105Z" fill="black"/>
<path d="M85.7812 21.207H82.9688V23.8579H80.1562V26.5088H82.9688V29.1597H85.7812V26.5088H88.5938V23.8579H85.7812V21.207Z" fill="black"/>
<path d="M85.7812 0C83.4553 0 81.5625 1.78404 81.5625 3.97631C81.5625 6.16858 83.4553 7.95262 85.7812 7.95262C88.1072 7.95262 90 6.16858 90 3.97631C90 1.78404 88.1072 0 85.7812 0ZM85.7812 5.30175C85.005 5.30175 84.375 4.70795 84.375 3.97631C84.375 3.24467 85.005 2.65087 85.7812 2.65087C86.5575 2.65087 87.1875 3.24467 87.1875 3.97631C87.1875 4.70795 86.5575 5.30175 85.7812 5.30175Z" fill="black"/>
</svg>
