<svg width="17" height="18" viewBox="0 0 17 18" fill="none" xmlns="http://www.w3.org/2000/svg">
<path d="M16.7631 12.7149L15.0308 11.8196L13.9283 8.85509C13.9154 8.82004 13.8955 8.78813 13.8701 8.76136C13.8446 8.73459 13.8141 8.71353 13.7805 8.6995L6.93972 5.87287C6.89189 5.85319 6.83953 5.84839 6.7891 5.85906C6.73866 5.86973 6.69234 5.8954 6.65584 5.93293L5.74348 6.87605C5.70766 6.91381 5.68322 6.96152 5.67314 7.01337C5.66306 7.06523 5.66777 7.11899 5.6867 7.16813L8.42115 14.2395C8.43473 14.2743 8.4551 14.3058 8.481 14.3321C8.5069 14.3584 8.53776 14.3789 8.57167 14.3923L11.4395 15.532L12.3056 17.3227C12.3239 17.3622 12.351 17.3965 12.3848 17.4229C12.4186 17.4493 12.458 17.4669 12.4997 17.4742C12.5138 17.4755 12.5279 17.4755 12.542 17.4742C12.6119 17.4739 12.6788 17.4449 12.7281 17.3937L16.8318 13.1517C16.862 13.1215 16.8848 13.0844 16.8984 13.0433C16.9119 13.0023 16.9158 12.9585 16.9097 12.9155C16.9026 12.8724 16.8856 12.8317 16.8601 12.7968C16.8346 12.7618 16.8013 12.7338 16.7631 12.7149ZM6.23993 7.13264L6.38649 6.98251L9.79168 10.5025C9.56726 10.8312 9.47034 11.235 9.52008 11.634C9.56981 12.033 9.76258 12.3983 10.0603 12.6574C10.358 12.9166 10.7389 13.0509 11.1277 13.0337C11.5166 13.0165 11.8851 12.8491 12.1603 12.5647C12.4355 12.2802 12.5974 11.8993 12.614 11.4973C12.6306 11.0954 12.5008 10.7016 12.25 10.3939C11.9993 10.0861 11.646 9.88688 11.26 9.83547C10.874 9.78405 10.4833 9.88424 10.1653 10.1162L6.76015 6.59625L6.90539 6.44475L13.4768 9.16218L14.5133 11.9492L11.5649 14.997L8.86875 13.9255L6.23993 7.13264ZM11.0605 10.3674C11.2979 10.3677 11.5277 10.4531 11.711 10.609C11.8942 10.7649 12.0195 10.9817 12.0655 11.2224C12.1115 11.4631 12.0753 11.7128 11.9631 11.929C11.851 12.1452 11.6698 12.3145 11.4504 12.4081C11.231 12.5017 10.987 12.5138 10.76 12.4423C10.533 12.3708 10.337 12.2202 10.2053 12.016C10.0737 11.8119 10.0146 11.5669 10.0381 11.3227C10.0617 11.0786 10.1663 10.8505 10.3343 10.6772C10.5271 10.4785 10.7883 10.3671 11.0605 10.3674ZM12.6146 16.7399L11.9544 15.375L14.8764 12.3546L16.1967 13.037L12.6146 16.7399Z" fill="url(#paint0_linear_85_9963)"/>
<path d="M5.05426 14.6082C5.00377 14.5589 4.93692 14.5314 4.86743 14.5314C4.79795 14.5314 4.7311 14.5589 4.6806 14.6082L4.34523 14.9549C3.45027 13.6993 2.95655 12.1864 2.93288 10.6269C2.90921 9.0675 3.35678 7.5393 4.2132 6.25529C4.46978 6.40124 4.76521 6.4573 5.05521 6.41508C5.34521 6.37285 5.61417 6.23462 5.82177 6.0211C6.02938 5.80757 6.16445 5.53025 6.20675 5.23069C6.24906 4.93113 6.19631 4.62546 6.05641 4.3595C7.29855 3.47421 8.77693 3.01156 10.2855 3.03603C11.7941 3.06049 13.2577 3.57086 14.4724 4.49599L14.1317 4.83857C14.0826 4.88975 14.0551 4.95893 14.0551 5.03101C14.0549 5.06694 14.0616 5.10255 14.0747 5.13581C14.0879 5.16906 14.1072 5.19932 14.1317 5.22482L15.2963 6.41907C15.3457 6.46991 15.4127 6.49845 15.4824 6.49845C15.5522 6.49845 15.6191 6.46991 15.6686 6.41907L16.8265 5.22209C16.8511 5.19674 16.8706 5.16663 16.8839 5.1335C16.8972 5.10036 16.904 5.06484 16.904 5.02896C16.904 4.99309 16.8972 4.95757 16.8839 4.92443C16.8706 4.89129 16.8511 4.86119 16.8265 4.83584L15.6686 3.63886C15.6191 3.58801 15.5522 3.55948 15.4824 3.55948C15.4127 3.55948 15.3457 3.58801 15.2963 3.63886L14.8487 4.09881C13.7455 3.24072 12.4413 2.7016 11.0699 2.53682C9.69858 2.37203 8.30951 2.58752 7.04536 3.16115L8.56773 1.59157C8.74034 1.67683 8.93659 1.69613 9.12167 1.64604C9.30674 1.59596 9.46866 1.47972 9.57872 1.31797C9.68877 1.15621 9.73984 0.959383 9.72286 0.762407C9.70588 0.56543 9.62195 0.381038 9.48597 0.241942C9.34998 0.102846 9.17073 0.0180388 8.98 0.002566C8.78928 -0.0129068 8.59942 0.0419548 8.44411 0.157418C8.2888 0.272882 8.17807 0.441482 8.13157 0.633309C8.08507 0.825136 8.10581 1.02779 8.19011 1.20531L5.6207 3.86542C5.35981 3.68452 5.04627 3.60287 4.73361 3.63441C4.42096 3.66594 4.12859 3.80871 3.90646 4.03833C3.68433 4.26795 3.54622 4.57017 3.51571 4.89336C3.4852 5.21655 3.56419 5.54067 3.73919 5.81035L1.16582 8.46636C0.99341 8.37952 0.796801 8.35867 0.610927 8.40753C0.425054 8.45638 0.261954 8.57177 0.150611 8.73319C0.0392681 8.89461 -0.0131074 9.09161 0.00279168 9.28918C0.0186908 9.48675 0.101835 9.67209 0.237449 9.81228C0.373063 9.95246 0.552365 10.0384 0.743493 10.0548C0.93462 10.0713 1.1252 10.0171 1.28135 9.90204C1.43751 9.78695 1.54914 9.61835 1.5964 9.42621C1.64366 9.23407 1.62349 9.03084 1.53948 8.85262L3.06185 7.28303C2.50637 8.58944 2.29725 10.0251 2.45596 11.4427C2.61467 12.8603 3.1355 14.2086 3.96497 15.3493L3.51869 15.812C3.46951 15.8632 3.4419 15.9324 3.4419 16.0045C3.4419 16.0766 3.46951 16.1458 3.51869 16.1969L4.67664 17.3939C4.72594 17.4452 4.79289 17.4741 4.86281 17.4744C4.89766 17.4745 4.93216 17.4674 4.96434 17.4535C4.99652 17.4397 5.02574 17.4195 5.0503 17.3939L6.20957 16.1969C6.25876 16.1458 6.28636 16.0766 6.28636 16.0045C6.28636 15.9324 6.25876 15.8632 6.20957 15.812L5.05426 14.6082ZM15.4851 4.21483L16.2694 5.02555L15.4851 5.83628L14.7008 5.02555L15.4851 4.21483ZM8.71825 0.636165C8.75749 0.595272 8.80759 0.567349 8.86221 0.55594C8.91683 0.54453 8.97349 0.550149 9.02501 0.572083C9.07654 0.594017 9.12059 0.631277 9.1516 0.679136C9.1826 0.726995 9.19915 0.783296 9.19915 0.840894C9.19915 0.898493 9.1826 0.954794 9.1516 1.00265C9.12059 1.05051 9.07654 1.08777 9.02501 1.10971C8.97349 1.13164 8.91683 1.13726 8.86221 1.12585C8.80759 1.11444 8.75749 1.08652 8.71825 1.04562C8.69222 1.01875 8.67157 0.986836 8.65748 0.951707C8.64339 0.916578 8.63614 0.878923 8.63614 0.840894C8.63614 0.802866 8.64339 0.765211 8.65748 0.730081C8.67157 0.694952 8.69222 0.663039 8.71825 0.636165ZM4.28186 4.42638C4.35854 4.34673 4.44968 4.28353 4.55006 4.24041C4.65044 4.19728 4.75807 4.17508 4.86677 4.17508C4.97548 4.17508 5.08311 4.19728 5.18349 4.24041C5.28386 4.28353 5.37501 4.34673 5.45169 4.42638C5.5676 4.54601 5.64658 4.69849 5.67863 4.86453C5.71068 5.03057 5.69437 5.2027 5.63175 5.35915C5.56913 5.5156 5.46302 5.64934 5.32685 5.74343C5.19068 5.83752 5.03057 5.88775 4.86677 5.88775C4.70298 5.88775 4.54287 5.83752 4.4067 5.74343C4.27053 5.64934 4.16442 5.5156 4.1018 5.35915C4.03918 5.2027 4.02286 5.03057 4.05491 4.86453C4.08697 4.69849 4.16594 4.54601 4.28186 4.42638ZM1.01266 9.42176C0.958746 9.46824 0.88997 9.49219 0.819844 9.48891C0.749718 9.48564 0.683313 9.45537 0.633675 9.40406C0.584038 9.35275 0.554759 9.28411 0.55159 9.21162C0.548422 9.13913 0.571593 9.06803 0.616551 9.01231C0.669393 8.95862 0.740517 8.92854 0.814604 8.92854C0.888692 8.92854 0.959816 8.95862 1.01266 9.01231C1.03869 9.03918 1.05934 9.07109 1.07343 9.10622C1.08751 9.14135 1.09477 9.17901 1.09477 9.21703C1.09477 9.25506 1.08751 9.29272 1.07343 9.32785C1.05934 9.36298 1.03869 9.39489 1.01266 9.42176ZM4.86677 16.8097L4.08248 15.999L4.86677 15.1883L5.65106 15.999L4.86677 16.8097Z" fill="url(#paint1_linear_85_9963)"/>
<defs>
<linearGradient id="paint0_linear_85_9963" x1="6.39595" y1="3.48614" x2="17.5464" y2="4.13784" gradientUnits="userSpaceOnUse">
<stop stop-color="#C4C4C4"/>
<stop offset="1" stop-color="white"/>
</linearGradient>
<linearGradient id="paint1_linear_85_9963" x1="1.09438" y1="-3.55961" x2="17.857" y2="-2.58009" gradientUnits="userSpaceOnUse">
<stop stop-color="#C4C4C4"/>
<stop offset="1" stop-color="white"/>
</linearGradient>
</defs>
</svg>
