<svg width="36" height="36" viewBox="0 0 36 36" fill="none" xmlns="http://www.w3.org/2000/svg">
<g clip-path="url(#clip0_84_1113)">
<path fill-rule="evenodd" clip-rule="evenodd" d="M18.2344 0.960938C18.0322 1.25233 17.8278 1.54203 17.6212 1.83003C13.3222 7.8232 8.08034 13.0768 2.10056 17.3854C1.81352 17.5922 1.52479 17.7968 1.23438 17.9993C1.52473 18.2018 1.8134 18.4065 2.10038 18.6134C8.0788 22.9237 13.3204 28.1771 17.6211 34.1689C17.8277 34.4568 18.0321 34.7464 18.2344 35.0376C18.4365 34.7463 18.6407 34.4565 18.8472 34.1686C23.1444 28.1739 28.3865 22.9201 34.3676 18.6132C34.6549 18.4064 34.9438 18.2017 35.2344 17.9993C34.9437 17.7969 34.6547 17.5924 34.3674 17.3856C28.3849 13.0804 23.1427 7.82638 18.8471 1.83041C18.6406 1.54229 18.4364 1.25246 18.2344 0.960938ZM18.2339 2.69012C13.9753 8.56532 8.81998 13.7318 2.9574 17.9995C8.81871 22.2688 13.9738 27.4352 18.2339 33.3092C22.4906 27.4325 27.6461 22.2657 33.5099 17.9995C27.6448 13.7349 22.4891 8.56799 18.2339 2.69012Z" fill="white"/>
</g>
<defs>
<clipPath id="clip0_84_1113">
<rect width="35" height="36" fill="white" transform="translate(0.734375)"/>
</clipPath>
</defs>
</svg>
