<svg width="814" height="356" viewBox="0 0 814 356" fill="none" xmlns="http://www.w3.org/2000/svg">
<g filter="url(#filter0_d_96_45)">
<path d="M30.6016 202.257L45.8525 200.162L53.478 178.505H63.0099L69.6822 198.765H77.3077L87.7927 206.449L94.4651 214.832L103.044 207.846L112.576 244.871L119.248 243.474H127.827L136.405 242.077H144.984L152.609 257.446L161.188 251.159H169.767L177.392 244.871H194.55L202.175 242.077L209.801 259.542L218.379 261.637L226.958 270.02L232.677 266.527H244.115L251.741 264.432L261.273 243.474L268.898 216.229L276.524 230.9L284.149 212.038L292.728 224.612H302.26L311.792 220.421L317.511 210.64L325.136 220.421L332.762 226.009L343.247 253.254L350.872 279.801H361.357L365.17 278.403L375.655 287.485L383.281 276.308L408.063 316.127H417.595L425.221 313.333L432.846 316.826L450.004 279.801L457.629 253.254L464.301 248.364H475.74L489.084 251.857L496.71 236.488L507.195 240.68L514.82 238.584L522.446 231.598H539.603L547.229 221.119L556.76 212.038H564.386L571.058 216.928H580.59L597.747 211.339L605.373 210.64L613.952 207.148L621.577 190.381L630.156 193.176L638.734 207.148H647.313L657.798 203.655H663.517L670.19 207.148L678.768 201.559L687.347 200.86L695.926 177.807H706.411L720.709 183.396L727.381 170.122H738.819L747.398 166.629L752.164 157.548H769.321L777.9 145.672H783.619" stroke="white"/>
</g>
<defs>
<filter id="filter0_d_96_45" x="0.533691" y="116.172" width="813.085" height="232.315" filterUnits="userSpaceOnUse" color-interpolation-filters="sRGB">
<feFlood flood-opacity="0" result="BackgroundImageFix"/>
<feColorMatrix in="SourceAlpha" type="matrix" values="0 0 0 0 0 0 0 0 0 0 0 0 0 0 0 0 0 0 127 0" result="hardAlpha"/>
<feOffset dy="1"/>
<feGaussianBlur stdDeviation="15"/>
<feComposite in2="hardAlpha" operator="out"/>
<feColorMatrix type="matrix" values="0 0 0 0 0.866667 0 0 0 0 0.984314 0 0 0 0 0.141176 0 0 0 1 0"/>
<feBlend mode="normal" in2="BackgroundImageFix" result="effect1_dropShadow_96_45"/>
<feBlend mode="normal" in="SourceGraphic" in2="effect1_dropShadow_96_45" result="shape"/>
</filter>
</defs>
</svg>
