<svg width="17" height="18" viewBox="0 0 17 18" fill="none" xmlns="http://www.w3.org/2000/svg">
<path d="M7.04265 1.16699C3.77603 1.16699 1.12793 3.90527 1.12793 7.28312C1.12793 10.661 3.77603 13.3992 7.04265 13.3992C10.3093 13.3992 12.9574 10.661 12.9574 7.28312C12.9538 3.9068 10.3078 1.17067 7.04265 1.16699ZM7.04265 1.74948C7.89996 1.75018 8.74453 1.96408 9.50511 2.37314C10.2657 2.78219 10.92 3.37441 11.4128 4.09982L10.7086 4.82793C10.5373 4.72071 10.3411 4.66335 10.1408 4.66192C9.51863 4.66192 9.01422 5.1835 9.01422 5.8269C9.0152 6.03421 9.07038 6.23739 9.17392 6.41492L7.32965 8.32199C7.15836 8.21398 6.96162 8.15685 6.76099 8.15685C6.56037 8.15685 6.36363 8.21398 6.19234 8.32199L4.91138 6.99741C5.01492 6.81988 5.0701 6.6167 5.07108 6.40939C5.07185 5.76727 4.5691 5.24609 3.94812 5.24528C3.43456 5.24463 2.98586 5.60384 2.85784 6.11814H1.81291C2.34619 3.57169 4.52298 1.7533 7.04265 1.74948ZM10.7041 5.8269C10.7041 6.14861 10.452 6.40939 10.1408 6.40939C9.82971 6.40939 9.57753 6.14861 9.57753 5.8269C9.57753 5.50518 9.82971 5.24441 10.1408 5.24441C10.452 5.24441 10.7041 5.50518 10.7041 5.8269ZM7.3243 9.32183C7.3243 9.64354 7.07212 9.90432 6.76099 9.90432C6.44987 9.90432 6.19769 9.64354 6.19769 9.32183C6.19769 9.00011 6.44987 8.73934 6.76099 8.73934C7.07212 8.73934 7.3243 9.00011 7.3243 9.32183ZM4.50777 6.40939C4.50777 6.7311 4.25558 6.99188 3.94446 6.99188C3.63334 6.99188 3.38116 6.7311 3.38116 6.40939C3.38116 6.08767 3.63334 5.8269 3.94446 5.8269C4.25558 5.8269 4.50777 6.08767 4.50777 6.40939ZM9.6428 12.1216C8.84739 12.5783 7.95244 12.8176 7.04265 12.8167C4.08916 12.8188 1.69324 10.3447 1.69124 7.29066C1.6911 7.09356 1.70116 6.89657 1.72137 6.70059H2.85784C2.98589 7.21337 3.43231 7.57233 3.94446 7.57433C4.14495 7.57332 4.34144 7.51626 4.51312 7.40919L5.79408 8.73377C5.69054 8.9113 5.63536 9.11448 5.63438 9.32179C5.63438 9.96519 6.13879 10.4868 6.76099 10.4868C7.3832 10.4868 7.88761 9.96519 7.88761 9.32179C7.88663 9.11448 7.83145 8.9113 7.72791 8.73377L9.57218 6.8267C9.74386 6.93377 9.94035 6.99083 10.1408 6.99184C10.763 6.99184 11.2674 6.47026 11.2674 5.82686C11.2665 5.61955 11.2113 5.41637 11.1077 5.23884L11.7218 4.60422C13.1552 7.27376 12.2244 10.6394 9.6428 12.1216Z" fill="url(#paint0_linear_85_9976)"/>
<path d="M14.0891 2.91338C14.6012 2.91137 15.0476 2.55245 15.1757 2.03964H16.9056V1.45716H15.1757C15.0476 0.944348 14.6012 0.585426 14.0891 0.583424C13.4668 0.583424 12.9624 1.10501 12.9624 1.7484C12.9634 1.95571 13.0186 2.15889 13.1221 2.33642L12.6273 2.84814C10.2595 -0.34175 5.83919 -0.942805 2.75435 1.50565C-0.330496 3.9541 -0.911757 8.52492 1.45607 11.7148C3.69112 14.7258 7.78816 15.4562 10.8692 13.3929L11.7192 14.2719L12.1175 14.6837L14.3848 17.0282C14.9614 17.6245 15.8963 17.6245 16.473 17.0282C17.0496 16.4319 17.0496 15.4652 16.473 14.8689L14.2057 12.5244L13.8074 12.1126L12.9574 11.2336C14.4663 8.83029 14.4663 5.73382 12.9574 3.33044L13.5207 2.74795C13.6923 2.85505 13.8886 2.91221 14.0891 2.91338ZM14.0891 1.16591C14.4002 1.16591 14.6524 1.42668 14.6524 1.7484C14.6524 2.07012 14.4002 2.33089 14.0891 2.33089C13.7779 2.33089 13.5257 2.07012 13.5257 1.7484C13.5257 1.42668 13.778 1.16591 14.0891 1.16591ZM16.0747 15.2808C16.4354 15.6454 16.442 16.2434 16.0894 16.6164C15.7368 16.9894 15.1585 16.9962 14.7977 16.6316C14.7928 16.6266 14.7879 16.6215 14.783 16.6164L12.5157 14.2719L13.8074 12.9363L16.0747 15.2808ZM13.4091 12.5244L12.1175 13.8601L11.3379 13.0539C11.3776 13.0225 11.4148 12.9878 11.4539 12.9555C11.4931 12.9231 11.5384 12.8844 11.5804 12.848C11.6421 12.7944 11.7029 12.7402 11.7626 12.6846C11.7933 12.6555 11.8226 12.6264 11.8527 12.5972C11.9682 12.4854 12.0801 12.3698 12.1882 12.2504C12.2163 12.2192 12.2445 12.1889 12.2727 12.1572C12.3264 12.0953 12.3791 12.0325 12.4307 11.9687C12.466 11.9257 12.5006 11.8821 12.5346 11.838C12.5656 11.7978 12.5991 11.7593 12.6295 11.7183L13.4091 12.5244ZM12.3169 11.1716C12.2282 11.2998 12.1366 11.4253 12.04 11.5461C12.0119 11.5814 11.9817 11.6155 11.9527 11.6501C11.8668 11.7535 11.7777 11.8542 11.6857 11.9518C11.6457 11.9946 11.6051 12.0366 11.5638 12.078C11.4695 12.1733 11.3721 12.2654 11.272 12.3541C11.2384 12.3832 11.2055 12.4149 11.1714 12.4443C11.0545 12.5442 10.9331 12.6389 10.8092 12.7306C7.89353 14.8846 3.84128 14.1866 1.75828 11.1716C-0.324722 8.15665 0.350295 3.96641 3.26597 1.81247C6.18164 -0.341459 10.2339 0.356508 12.3169 3.3715C13.9287 5.70444 13.9287 8.83867 12.3169 11.1716Z" fill="url(#paint1_linear_85_9976)"/>
<defs>
<linearGradient id="paint0_linear_85_9976" x1="1.89378" y1="-1.32476" x2="13.6243" y2="-0.6395" gradientUnits="userSpaceOnUse">
<stop stop-color="#C4C4C4"/>
<stop offset="1" stop-color="white"/>
</linearGradient>
<linearGradient id="paint1_linear_85_9976" x1="1.09449" y1="-3.55981" x2="17.8587" y2="-2.58017" gradientUnits="userSpaceOnUse">
<stop stop-color="#C4C4C4"/>
<stop offset="1" stop-color="white"/>
</linearGradient>
</defs>
</svg>
