<svg width="18" height="16" viewBox="0 0 18 16" fill="none" xmlns="http://www.w3.org/2000/svg">
<path d="M4.24828 11.618L6.26817 14.4736C6.70404 15.0905 7.68451 15.3189 8.45989 14.9531C9.22718 14.5912 9.49082 13.791 9.04697 13.1643L7.8437 11.463L8.88573 10.972C9.07753 10.8815 9.14331 10.6814 9.03253 10.5248L8.51099 9.78751C8.57316 9.77769 8.98211 9.71221 16.1934 8.55761C17.0849 8.51809 17.619 7.72231 17.1687 7.08611L15.8358 5.20175L16.6876 4.14869C16.7286 4.09795 16.7516 4.03888 16.7538 3.97811C16.7561 3.91733 16.7375 3.85724 16.7003 3.80457L15.8981 2.67059C15.8608 2.61799 15.8063 2.57489 15.7407 2.5461C15.6751 2.51732 15.601 2.50397 15.5266 2.50756L13.9835 2.58312L12.5037 0.491043C12.2894 0.188004 11.9054 0.00448485 11.4767 0.000130935C11.4715 -9.497e-09 11.4665 0 11.4613 0C11.0471 0 10.6711 0.168297 10.4483 0.452807L5.20873 5.9006L1.80243 7.50566C0.462702 8.13675 -0.00144054 9.53959 0.774791 10.636C1.48392 11.6385 2.97891 12.0329 4.24828 11.6181V11.618ZM8.35244 13.4918C8.57396 13.8046 8.44285 14.2048 8.05848 14.3861C7.67291 14.568 7.1819 14.4562 6.96286 14.1464L4.95741 11.311L6.34679 10.6563C8.66782 13.9378 8.31514 13.4393 8.35244 13.4918ZM7.44261 10.8959L7.04152 10.3289L7.73621 10.0016L8.1373 10.5686L7.44261 10.8959ZM15.3273 3.17312L15.8816 3.95676L15.3873 4.56775L14.4319 3.21699L15.3273 3.17312ZM11.1192 0.81176C11.2268 0.668048 11.3976 0.653218 11.4668 0.654724C11.5353 0.655379 11.7059 0.672762 11.8088 0.818307L16.4741 7.41348C16.626 7.62819 16.4413 7.89814 16.1366 7.90429C16.0819 7.90527 16.0567 7.91336 15.9166 7.93474L10.9818 0.958418C11.0853 0.849734 11.0986 0.839258 11.1192 0.81176ZM10.448 1.51343L15.0845 8.06797L8.08704 9.18814L5.95937 6.18037L10.448 1.51343ZM1.46948 10.3086C1.29353 10.0603 1.20071 9.77864 1.20035 9.49183C1.20035 8.90798 1.58479 8.36423 2.20348 8.07272L5.32966 6.59959L7.33511 9.43454L4.20897 10.9078C3.25121 11.3589 2.02238 11.0902 1.46952 10.3086H1.46948Z" fill="url(#paint0_linear_85_9985)"/>
<defs>
<linearGradient id="paint0_linear_85_9985" x1="1.49471" y1="-3.08173" x2="18.267" y2="-1.94772" gradientUnits="userSpaceOnUse">
<stop stop-color="#C4C4C4"/>
<stop offset="1" stop-color="white"/>
</linearGradient>
</defs>
</svg>
