<svg width="40" height="45" viewBox="0 0 40 45" fill="none" xmlns="http://www.w3.org/2000/svg">
<g clip-path="url(#clip0_15_87)">
<path d="M8.33344 30.9376V14.0627C8.31912 13.0225 8.36921 11.9825 8.48335 10.9501C8.96677 6.01856 11.0333 4.6875 16.6669 4.6875H23.3332C28.9663 4.6875 31.0333 6.01856 31.5167 10.9501C31.6308 11.9825 31.6809 13.0225 31.6666 14.0627V30.9376C31.6809 31.9778 31.6308 33.0179 31.5167 34.0503C31.0333 38.9818 28.9668 40.3129 23.3332 40.3129H16.6669C11.0333 40.3129 8.96677 38.9812 8.48335 34.0503C8.36921 33.0179 8.31912 31.9778 8.33344 30.9376Z" stroke="white" stroke-width="1.5" stroke-linecap="round" stroke-linejoin="round"/>
<path d="M3.33301 36.5643V8.4375" stroke="white" stroke-width="1.5" stroke-linecap="round" stroke-linejoin="round"/>
<path d="M36.6665 35.6268V7.5" stroke="white" stroke-width="1.5" stroke-linecap="round" stroke-linejoin="round"/>
</g>
<defs>
<clipPath id="clip0_15_87">
<rect width="40" height="45" fill="white"/>
</clipPath>
</defs>
</svg>
