<svg width="42" height="39" viewBox="0 0 42 39" fill="none" xmlns="http://www.w3.org/2000/svg">
<path d="M17.0906 27.2774H10.6131C4.85412 27.2774 3.41797 25.9255 3.41797 20.502V10.8457C3.41797 5.42268 4.85412 4.07031 10.6131 4.07031H28.6101C34.3696 4.07031 35.8053 5.42268 35.8053 10.8457" stroke="white" stroke-width="1.5" stroke-linecap="round" stroke-linejoin="round"/>
<path d="M17.0913 34.5516V27.2773" stroke="white" stroke-width="1.5" stroke-linecap="round" stroke-linejoin="round"/>
<path d="M3.41797 20.8398H17.0906" stroke="white" stroke-width="1.5" stroke-linecap="round" stroke-linejoin="round"/>
<path d="M11.5195 34.5547H17.0913" stroke="white" stroke-width="1.5" stroke-linecap="round" stroke-linejoin="round"/>
<path d="M37.6004 20.5998V29.7893C37.6004 33.6035 36.5898 34.5531 32.5415 34.5531H26.474C22.4257 34.5531 21.415 33.6035 21.415 29.7893V20.5998C21.415 16.7876 22.4257 15.8359 26.474 15.8359H32.5415C36.5919 15.8359 37.6004 16.7876 37.6004 20.5998Z" stroke="white" stroke-width="1.5" stroke-linecap="round" stroke-linejoin="round"/>
<path d="M29.4727 29.3711H29.4882" stroke="white" stroke-width="2" stroke-linecap="round" stroke-linejoin="round"/>
</svg>
