<svg width="42" height="45" viewBox="0 0 42 45" fill="none" xmlns="http://www.w3.org/2000/svg">
<path d="M34.8246 25.3125H7.17519C4.55005 25.3125 3.5 26.5123 3.5 29.4936V37.0686C3.5 40.0499 4.55005 41.2497 7.17519 41.2497H34.8246C37.4498 41.2497 38.4998 40.0499 38.4998 37.0686V29.4936C38.4998 26.5123 37.4498 25.3125 34.8246 25.3125Z" stroke="white" stroke-width="1.5" stroke-linecap="round" stroke-linejoin="round"/>
<path d="M34.8246 3.75H7.17519C4.55005 3.75 3.5 4.94977 3.5 7.93109V15.5061C3.5 18.4874 4.55005 19.6872 7.17519 19.6872H34.8246C37.4498 19.6872 38.4998 18.4874 38.4998 15.5061V7.93109C38.4998 4.94977 37.4498 3.75 34.8246 3.75Z" stroke="white" stroke-width="1.5" stroke-linecap="round" stroke-linejoin="round"/>
</svg>
