<svg xmlns="http://www.w3.org/2000/svg" xmlns:xlink="http://www.w3.org/1999/xlink" version="1.1" x="0px" y="0px" viewBox="0 0 100 125" enable-background="new 0 0 100 100" xml:space="preserve"><path d="M45.786,23.573l9.532-9.532c0.918-0.918,2.421-0.918,3.339,0l34.624,34.624c0.49,0.49,0.71,1.146,0.677,1.791  c0.033,0.645-0.187,1.301-0.677,1.791L58.657,86.87c-0.918,0.918-2.421,0.918-3.339,0l-9.532-9.532  c-0.918-0.918-0.918-2.421,0-3.339l23.544-23.544L45.786,26.912C44.867,25.994,44.867,24.491,45.786,23.573z M6.728,26.001  l23.543,23.543L6.728,73.088c-0.918,0.918-0.918,2.421,0,3.339l9.532,9.532c0.918,0.918,2.421,0.918,3.339,0l34.624-34.624  c0.49-0.49,0.71-1.146,0.677-1.791c0.033-0.645-0.187-1.301-0.677-1.791L19.599,13.13c-0.918-0.918-2.421-0.918-3.339,0  l-9.532,9.532C5.81,23.58,5.81,25.083,6.728,26.001z"/></svg>